<svg width="24" height="24" viewBox="0 0 24 24" fill="none" xmlns="http://www.w3.org/2000/svg">
<path d="M11.5804 0.319733L0.350952 2.23811L0.701871 14.3878L1.05279 15.0273L2.80738 17.2654L5.96566 19.8232L10.5276 22.7008L12.2822 23.3403L17.1951 20.4627L22.1079 15.9865L23.1607 14.547V2.23811L11.5804 0.319733Z" fill="black"/>
<path d="M9.45446 0.227315C10.2588 0.0512443 11.1008 0.0258412 11.9286 0C12.5982 0.0091977 13.2706 0.0416087 13.9336 0.131834C14.6694 0.24571 15.4014 0.377982 16.1386 0.483974C16.2748 0.524269 16.4239 0.519889 16.5563 0.568943C16.7306 0.595661 16.9177 0.588653 17.0806 0.657854C17.112 0.658292 17.1749 0.65873 17.2063 0.659168L17.212 0.708661C17.4154 0.692017 17.6197 0.718296 17.8174 0.762971C17.9598 0.816843 18.1193 0.791002 18.2655 0.833925C20.1543 1.13789 22.0426 1.44929 23.9319 1.74975C23.949 1.75895 23.9829 1.77778 24 1.78742C23.9895 6.11165 23.9995 10.4363 23.9952 14.761C24.0176 14.8241 23.9452 14.8565 23.9019 14.8858C23.0275 16.1297 21.9802 17.265 20.8496 18.3183C19.6195 19.4461 18.2922 20.4842 16.8872 21.4241C15.6395 22.2532 14.3498 23.0315 13.0068 23.7244C12.6734 23.9539 12.2443 24.0327 11.8352 23.988C11.5209 23.9258 11.1923 23.8746 10.9151 23.7139C9.69211 23.1011 8.5053 22.4214 7.36231 21.6869C5.75783 20.6777 4.23812 19.5486 2.87653 18.2706C1.88594 17.3403 0.975354 16.3281 0.263365 15.1994C0.176688 15.0382 0.0466722 14.8906 0.00380997 14.7137C-0.00190499 10.3855 0.00571497 6.0569 0 1.72917C0.2767 1.66873 0.561495 1.64376 0.839624 1.58989C0.923919 1.56054 1.05108 1.6258 1.10775 1.54521C3.51042 1.16942 5.91118 0.7783 8.31385 0.397253C8.69342 0.340315 9.07108 0.265419 9.45446 0.227315ZM10.9827 0.892615C10.0183 0.944297 9.07775 1.16285 8.12573 1.296C7.06227 1.47076 5.9969 1.64376 4.93344 1.81589C3.59662 2.0213 2.27551 2.25606 0.939159 2.45973C0.929634 3.72813 0.938207 4.99566 0.936302 6.26451C0.936778 9.02513 0.929634 11.7844 0.940112 14.5455C1.38397 15.3115 1.94452 16.0198 2.5603 16.6772C3.74187 17.9451 5.10727 19.0581 6.54887 20.0703C8.03667 21.107 9.59781 22.0574 11.2271 22.8957C11.5509 23.0823 11.9457 23.2211 12.3286 23.1121C12.4453 22.9991 12.6186 22.9553 12.7553 22.8655C13.6664 22.3933 14.5532 21.8809 15.408 21.3264C16.7591 20.4723 18.0474 19.5346 19.2604 18.5202C20.622 17.3591 21.8869 16.092 22.927 14.6743C23.0594 14.5608 23.0237 14.3852 23.0237 14.2363C23.0194 10.3124 23.0261 6.38802 23.0194 2.46323C20.8606 2.11591 18.7018 1.76508 16.5424 1.41688C16.2748 1.38491 16.0129 1.30169 15.74 1.31877L15.7204 1.2776C15.6566 1.26578 15.5685 1.30432 15.5195 1.24957C14.9865 1.17117 14.456 1.0827 13.9259 0.989848C12.9525 0.86765 11.9643 0.844436 10.9827 0.892615Z" fill="#4ADE80"/>
<path d="M11.1679 1.89601C11.5966 1.85572 12.0295 1.87017 12.46 1.87193C12.9039 1.90434 13.3558 1.90696 13.7906 1.99982C14.0502 2.03792 14.3064 2.0896 14.5674 2.12158C14.756 2.14172 14.926 2.21268 15.1184 2.20917C16.8338 2.48773 18.5517 2.7549 20.2666 3.03609C20.2595 3.04836 20.2447 3.07244 20.2376 3.08427C20.4343 3.04091 20.6414 3.09215 20.8367 3.12588C21.1486 3.16486 21.4558 3.231 21.7678 3.26822C21.7863 6.86452 21.7687 10.4621 21.7768 14.0589C21.7706 14.1311 21.7944 14.217 21.7306 14.2731C20.2814 16.0421 18.5431 17.5939 16.6962 19.0081C15.1889 20.1394 13.5925 21.1661 11.9652 22.1454C11.8252 22.1511 11.7099 22.0469 11.5813 22.0048C11.2446 21.8791 10.9555 21.6741 10.6469 21.5029C9.89969 21.0421 9.15007 20.5836 8.44094 20.0737C7.93469 19.6892 7.39891 19.3392 6.88123 18.9678C6.81361 18.9534 6.82218 18.8601 6.74979 18.8715C6.75169 18.8014 6.65311 18.8272 6.62215 18.7755C5.75253 18.1339 4.92243 17.4463 4.12852 16.7266C3.43416 16.1008 2.8398 15.3899 2.24544 14.6848C2.17686 14.5814 2.06447 14.4925 2.05542 14.365C2.05971 10.6838 2.06018 7.0003 2.05542 3.31859C2.06733 3.3037 2.09161 3.27392 2.10352 3.25859C2.28259 3.24895 2.45737 3.20515 2.63692 3.19596C2.96219 3.10529 3.30985 3.0904 3.64228 3.01813C5.40868 2.73914 7.17031 2.45839 8.93767 2.17676C9.67919 2.07165 10.4131 1.89645 11.1679 1.89601ZM3.09554 11.0547C3.0865 11.0714 3.06887 11.1047 3.0603 11.1213C3.06602 11.8085 3.06125 12.4957 3.06268 13.1829C3.07459 13.2394 3.08411 13.2963 3.09078 13.3537C3.11364 13.3231 3.13841 13.2937 3.16555 13.2661C3.90897 12.5991 4.64001 11.9202 5.37915 11.2492C5.38963 11.1796 5.48488 11.1931 5.51202 11.1292C7.87421 8.9708 10.2421 6.81766 12.6014 4.6562L12.6443 4.65664C12.6557 4.59882 12.7062 4.56379 12.7505 4.52612C13.2563 4.06448 13.7759 3.59146 14.2874 3.12456C14.3207 3.09172 14.3755 3.05755 14.3402 3.00718C13.9321 2.94674 13.5287 2.86221 13.1215 2.80089C13.1829 2.79651 13.2453 2.79257 13.3072 2.78863L13.3044 2.76629C13.2277 2.76629 13.151 2.77067 13.0796 2.79695C12.7757 2.77593 12.4705 2.76717 12.1657 2.7698C9.14817 5.53699 6.11781 8.29236 3.09554 11.0547ZM6.50262 3.46094C5.35248 3.64752 4.20139 3.83191 3.04554 3.99616C3.03458 4.0509 3.0303 4.10653 3.03173 4.16259C3.03697 5.2869 3.02554 6.41121 3.03744 7.53552C4.58715 6.12258 6.13305 4.70438 7.68657 3.29582C7.287 3.31772 6.8979 3.41145 6.50262 3.46094ZM17.6682 3.57043C14.9855 6.02315 12.2938 8.46755 9.61442 10.9233C9.56679 10.9807 9.46344 11.0109 9.46583 11.0933C9.45344 11.0942 9.42868 11.0968 9.4163 11.0977C9.14722 11.3416 8.891 11.5992 8.6062 11.8273C8.56667 11.8821 8.51952 11.9329 8.45332 11.9609C8.41999 12.01 8.37951 12.098 8.29997 12.0761C8.29854 12.0888 8.29616 12.1138 8.29521 12.126C7.00077 13.2981 5.71824 14.4802 4.42618 15.654C4.42665 15.6672 4.42713 15.6939 4.42713 15.707C4.82051 16.0863 5.23199 16.4498 5.64442 16.8116C6.72121 15.8485 7.78039 14.8652 8.85099 13.8951C8.96148 13.7755 9.08054 13.6739 9.20865 13.5683C10.5869 12.3109 11.9656 11.0534 13.3425 9.79465C13.3772 9.75348 13.4544 9.73289 13.443 9.66982C13.4563 9.6672 13.483 9.66238 13.4963 9.65975C14.014 9.1749 14.5355 8.70976 15.056 8.22973C15.0593 8.1579 15.1851 8.18286 15.1684 8.09526C15.1803 8.09307 15.2032 8.08913 15.2151 8.08694C16.7538 6.68407 18.2912 5.27902 19.829 3.87483C19.3851 3.78505 18.9346 3.72592 18.4859 3.66197C18.4779 3.65497 18.4617 3.64007 18.4531 3.63263C18.1892 3.64095 17.9287 3.52926 17.6682 3.57043ZM20.3695 6.87898C18.6436 8.45616 16.9158 10.0329 15.1894 11.6097L15.1784 11.6473C15.166 11.65 15.1413 11.6548 15.1294 11.6574C15.1189 11.7314 15.0027 11.7415 14.966 11.8133C13.2991 13.3301 11.6375 14.8516 9.97208 16.3701C9.92636 16.4008 9.90159 16.4748 9.83206 16.459C9.8373 16.5212 9.76586 16.551 9.72586 16.5887C9.66395 16.636 9.62489 16.7104 9.54441 16.7358C9.36677 16.9623 9.10531 17.1349 8.90385 17.3482C8.89338 17.4169 8.77241 17.3959 8.78908 17.4826C8.77765 17.4844 8.75479 17.4883 8.74384 17.4901C8.40475 17.8098 8.04328 18.1129 7.71514 18.4396C8.11852 18.7642 8.55715 19.0559 8.98577 19.3532C9.03958 19.4019 9.15722 19.4211 9.20532 19.3546C13.0839 15.8086 16.9681 12.268 20.8458 8.72115C20.8967 8.67472 20.8977 8.60289 20.8962 8.54113C20.8929 7.92664 20.8953 7.31258 20.8948 6.69809C20.8934 6.61137 20.9096 6.52246 20.8743 6.43968C20.6867 6.5645 20.5405 6.73576 20.3695 6.87898ZM20.7672 12.3323C17.6673 15.1613 14.5669 17.9894 11.4704 20.8214C11.4484 20.8735 11.468 20.9317 11.5289 20.951C11.6637 21.025 11.7961 21.1021 11.928 21.1805C12.0938 21.1153 12.23 21.0036 12.3857 20.9212C13.9678 19.9607 15.4818 18.9065 16.92 17.7717C18.2993 16.664 19.6061 15.4736 20.7472 14.1544C20.8072 14.0856 20.8824 14.0212 20.8967 13.9288C20.8924 13.447 20.8953 12.9648 20.8962 12.483C20.8905 12.4107 20.9139 12.3319 20.8743 12.2658C20.8315 12.278 20.7957 12.3004 20.7672 12.3323Z" fill="#4ADE80"/>
</svg>
